<?xml version="1.0" encoding="utf-8"?>
<!-- Generator: Adobe Illustrator 16.0.0, SVG Export Plug-In . SVG Version: 6.00 Build 0)  -->
<!DOCTYPE svg PUBLIC "-//W3C//DTD SVG 1.1//EN" "http://www.w3.org/Graphics/SVG/1.1/DTD/svg11.dtd">
<svg version="1.1" id="Layer_1" xmlns="http://www.w3.org/2000/svg" xmlns:xlink="http://www.w3.org/1999/xlink" x="0px" y="0px"
	 width="107.167px" height="119.48px" viewBox="0 0 107.167 119.48" enable-background="new 0 0 107.167 119.48"
	 xml:space="preserve">
<path fill="#ffffff" d="M0,0.212h61.059c7.483,0,13.888,0.909,19.219,2.721c5.328,1.815,9.75,4.422,13.266,7.824
	c2.382,2.496,4.252,5.331,5.613,8.504c1.36,3.176,2.041,6.803,2.041,10.885v0.34c0,6.917-1.73,12.501-5.188,16.753
	c-3.46,4.252-7.854,7.513-13.182,9.779c7.255,2.381,13.011,5.812,17.263,10.29c4.253,4.48,6.379,10.744,6.379,18.793v0.34
	c0,10.319-3.941,18.369-11.821,24.151c-7.882,5.783-18.964,8.674-33.25,8.674H0V0.212z M68.712,36.95
	c0-6.803-4.991-10.205-14.967-10.205H32.145v20.92h20.75c5.103,0,9.014-0.851,11.735-2.551s4.082-4.308,4.082-7.824V36.95z
	 M73.474,81.51c0-3.288-1.305-5.895-3.911-7.824c-2.61-1.927-6.691-2.892-12.246-2.892H32.145v21.94h25.512
	c5.103,0,9.015-0.936,11.735-2.806c2.722-1.871,4.082-4.563,4.082-8.079V81.51z"/>
</svg>
