<?xml version="1.0" encoding="utf-8"?>
<!-- Generator: Adobe Illustrator 16.0.0, SVG Export Plug-In . SVG Version: 6.00 Build 0)  -->
<!DOCTYPE svg PUBLIC "-//W3C//DTD SVG 1.1//EN" "http://www.w3.org/Graphics/SVG/1.1/DTD/svg11.dtd">
<svg version="1.1" id="Layer_1" xmlns="http://www.w3.org/2000/svg" xmlns:xlink="http://www.w3.org/1999/xlink" x="0px" y="0px"
	 width="113.103px" height="119.055px" viewBox="0 0 113.103 119.055" enable-background="new 0 0 113.103 119.055"
	 xml:space="preserve">
<path fill="#ffffff" d="M0,0h46.091c10.545,0,19.984,1.446,28.318,4.337c8.334,2.892,15.363,6.947,21.09,12.161
	c5.725,5.217,10.091,11.425,13.097,18.624c3.003,7.202,4.507,15.111,4.507,23.726v0.34c0,8.618-1.531,16.583-4.593,23.896
	c-3.061,7.313-7.483,13.636-13.266,18.964c-5.783,5.331-12.87,9.498-21.26,12.5c-8.393,3.006-17.917,4.507-28.573,4.507H0V0z
	 M32.995,29.083v60.718h13.437c9.976,0,17.97-2.607,23.98-7.824c6.009-5.214,9.015-12.642,9.015-22.28v-0.34
	c0-9.636-3.006-17.093-9.015-22.365c-6.011-5.272-14.005-7.909-23.98-7.909H32.995z"/>
</svg>
