<?xml version="1.0" encoding="utf-8"?>
<!-- Generator: Adobe Illustrator 16.0.0, SVG Export Plug-In . SVG Version: 6.00 Build 0)  -->
<!DOCTYPE svg PUBLIC "-//W3C//DTD SVG 1.1//EN" "http://www.w3.org/Graphics/SVG/1.1/DTD/svg11.dtd">
<svg version="1.1" id="Layer_1" xmlns="http://www.w3.org/2000/svg" xmlns:xlink="http://www.w3.org/1999/xlink" x="0px" y="0px"
	 width="113.104px" height="123.816px" viewBox="0 0 113.104 123.816" enable-background="new 0 0 113.104 123.816"
	 xml:space="preserve">
<path fill="#FFFFFF" d="M89.12,79.254c-1.813,2.156-3.656,4.112-5.527,5.868c-1.87,1.759-3.854,3.29-5.951,4.592
	c-2.101,1.305-4.424,2.296-6.975,2.977c-2.551,0.682-5.356,1.021-8.419,1.021c-4.196,0-8.021-0.821-11.479-2.466
	c-3.46-1.643-6.438-3.883-8.93-6.719c-2.494-2.833-4.45-6.208-5.867-10.119c-1.419-3.911-2.126-8.078-2.126-12.5v-0.341
	c0-4.308,0.707-8.39,2.126-12.245c1.417-3.854,3.373-7.229,5.867-10.12c2.492-2.892,5.47-5.158,8.93-6.804
	c3.458-1.642,7.283-2.466,11.479-2.466c5.783,0,10.715,1.276,14.797,3.827s7.824,5.926,11.227,10.12l24.832-19.218
	c-2.61-3.628-5.586-6.944-8.93-9.95c-3.346-3.003-7.088-5.612-11.226-7.823c-4.14-2.212-8.703-3.913-13.691-5.103
	C74.267,0.595,68.712,0,62.589,0H0v61.908l0,0c0,0,0,0,0,0.001v0.34v61.567h62.59l-0.016-0.016
	c6.102-0.077,11.61-0.746,16.511-2.027c5.214-1.36,9.949-3.231,14.201-5.612s8.05-5.214,11.396-8.504
	c3.343-3.287,6.434-6.859,9.27-10.716L89.12,79.254z"/>
</svg>
