<?xml version="1.0" encoding="utf-8"?>
<!-- Generator: Adobe Illustrator 16.0.0, SVG Export Plug-In . SVG Version: 6.00 Build 0)  -->
<!DOCTYPE svg PUBLIC "-//W3C//DTD SVG 1.1//EN" "http://www.w3.org/Graphics/SVG/1.1/DTD/svg11.dtd">
<svg version="1.1" id="Layer_1" xmlns="http://www.w3.org/2000/svg" xmlns:xlink="http://www.w3.org/1999/xlink" x="0px" y="0px"
	 width="116.334px" height="123.816px" viewBox="0 0 116.334 123.816" enable-background="new 0 0 116.334 123.816"
	 xml:space="preserve">
<path fill="#FFFFFF" d="M61.739,51.874v24.15h23.302v14.456c-2.382,1.589-5.132,2.807-8.249,3.656
	c-3.12,0.851-6.719,1.276-10.8,1.276c-4.763,0-9.1-0.821-13.012-2.466c-3.911-1.643-7.313-3.938-10.204-6.889
	c-2.892-2.947-5.132-6.434-6.719-10.46c-1.589-4.022-2.381-8.475-2.381-13.351v-0.34c0-4.533,0.792-8.785,2.381-12.757
	c1.587-3.968,3.742-7.398,6.463-10.29c2.721-2.891,5.923-5.187,9.609-6.888c3.683-1.7,7.681-2.551,11.991-2.551
	c6.008,0,11.225,0.965,15.646,2.892c4.422,1.93,8.785,4.706,13.096,8.333l19.39-23.47c-6.353-5.442-13.351-9.665-21.005-12.671
	C83.595,1.504,74.495,0,63.95,0c-0.469,0-0.928,0.022-1.392,0.03L62.589,0H0v61.908l0,0c0,0,0,0,0,0.001v0.34
	c0,2.357,0.115,4.661,0.333,6.915v54.324h57.021c2.376,0.213,4.799,0.328,7.276,0.328c10.997,0,20.775-1.759,29.34-5.271
	c8.559-3.514,16.012-7.937,22.364-13.268V51.874H61.739z"/>
</svg>
