<?xml version="1.0" encoding="utf-8"?>
<!-- Generator: Adobe Illustrator 16.0.0, SVG Export Plug-In . SVG Version: 6.00 Build 0)  -->
<!DOCTYPE svg PUBLIC "-//W3C//DTD SVG 1.1//EN" "http://www.w3.org/Graphics/SVG/1.1/DTD/svg11.dtd">
<svg version="1.1" id="Layer_1" xmlns="http://www.w3.org/2000/svg" xmlns:xlink="http://www.w3.org/1999/xlink" x="0px" y="0px"
     width="311.002px" height="65.991px" viewBox="0 0 311.002 65.991" style="enable-background:new 0 0 311.002 65.991;"
     xml:space="preserve">
		<path class="st0" fill="000000" d="M148.641,62.176c0.294-0.404,0.441-0.908,0.441-1.511v-0.027c0-0.797-0.257-1.424-0.772-1.878
			c-0.516-0.455-1.226-0.683-2.131-0.683h-3.516v7.777h1.689v-2.5h1.33l1.646,2.5h1.979l-1.877-2.785
			C147.943,62.878,148.346,62.581,148.641,62.176z M147.366,60.762c0,0.331-0.114,0.597-0.343,0.796c-0.229,0.2-0.547,0.3-0.955,0.3
			h-1.716v-2.224h1.684c0.418,0,0.745,0.095,0.979,0.283c0.234,0.189,0.352,0.464,0.352,0.823V60.762z M165.008,62.699h3.637v-1.524
			h-3.637v-1.572h4.13v-1.524h-5.798v7.777h5.856v-1.523h-4.188V62.699z M188.345,62.007c-0.217-0.181-0.467-0.333-0.749-0.458
			c-0.283-0.125-0.63-0.242-1.042-0.351c-0.681-0.175-1.129-0.327-1.344-0.458c-0.216-0.131-0.323-0.321-0.323-0.572v-0.021
			c0-0.199,0.088-0.363,0.262-0.49c0.173-0.127,0.418-0.19,0.733-0.19c0.597,0,1.262,0.258,1.994,0.773l0.874-1.29
			c-0.807-0.654-1.755-0.98-2.847-0.98c-0.788,0-1.433,0.215-1.933,0.646c-0.501,0.431-0.751,0.997-0.751,1.699v0.021
			c0,0.217,0.021,0.416,0.062,0.597c0.04,0.181,0.097,0.341,0.168,0.48c0.07,0.14,0.166,0.267,0.285,0.383
			c0.119,0.115,0.243,0.215,0.371,0.298c0.128,0.084,0.287,0.164,0.476,0.242c0.188,0.077,0.371,0.145,0.547,0.2
			c0.177,0.057,0.387,0.115,0.63,0.177c0.43,0.109,0.757,0.214,0.981,0.313c0.224,0.1,0.375,0.201,0.454,0.303
			c0.078,0.102,0.118,0.229,0.118,0.381v0.021c0,0.229-0.099,0.409-0.296,0.54s-0.47,0.196-0.816,0.196
			c-0.771,0-1.536-0.316-2.293-0.948l-0.997,1.212c0.45,0.405,0.958,0.712,1.522,0.921c0.563,0.208,1.143,0.312,1.734,0.312
			c0.846,0,1.525-0.212,2.041-0.637c0.515-0.426,0.772-1.017,0.772-1.772v-0.021c0-0.333-0.052-0.625-0.155-0.877
			C188.722,62.405,188.562,62.189,188.345,62.007z M203.282,65.855h1.689v-7.777h-1.689V65.855z M225.585,59.19
			c-0.354-0.344-0.786-0.615-1.297-0.814c-0.511-0.198-1.062-0.298-1.655-0.298h-2.996v7.777h2.996c0.593,0,1.145-0.1,1.655-0.301
			c0.511-0.2,0.943-0.475,1.297-0.821c0.354-0.348,0.631-0.76,0.831-1.237c0.2-0.477,0.3-0.986,0.3-1.529v-0.021
			c0-0.542-0.1-1.052-0.3-1.526C226.216,59.943,225.939,59.533,225.585,59.19z M224.952,61.988c0,0.688-0.214,1.245-0.641,1.671
			c-0.428,0.427-0.986,0.64-1.676,0.64h-1.309v-4.664h1.309c0.689,0,1.248,0.217,1.676,0.65c0.427,0.434,0.641,0.994,0.641,1.682
			V61.988z M242.632,62.699h3.636v-1.524h-3.636v-1.572h4.13v-1.524h-5.798v7.777h5.856v-1.523h-4.188V62.699z M266.228,62.867
			l-3.604-4.789h-1.561v7.777h1.668v-4.94l3.727,4.94h1.438v-7.777h-1.668V62.867z M287.196,64.19
			c-0.3,0.148-0.654,0.223-1.062,0.223c-0.647,0-1.181-0.237-1.601-0.713c-0.421-0.476-0.631-1.054-0.631-1.733v-0.021
			c0-0.676,0.212-1.248,0.636-1.717c0.424-0.468,0.956-0.702,1.596-0.702c0.368,0,0.71,0.074,1.024,0.223
			c0.314,0.147,0.629,0.365,0.943,0.65l1.073-1.253c-0.39-0.387-0.822-0.684-1.298-0.89s-1.053-0.309-1.732-0.309
			c-0.769,0-1.461,0.181-2.075,0.542c-0.615,0.361-1.091,0.848-1.427,1.459s-0.504,1.284-0.504,2.018v0.021
			c0,0.738,0.169,1.412,0.509,2.023s0.812,1.094,1.416,1.448s1.276,0.531,2.017,0.531c0.701,0,1.295-0.115,1.783-0.347
			s0.945-0.579,1.37-1.042l-1.078-1.101C287.817,63.813,287.497,64.042,287.196,64.19z M304.989,62.699h3.636v-1.524h-3.636v-1.572
			h4.13v-1.524h-5.798v7.777h5.857v-1.523h-4.189V62.699z M126.917,59.478H95.829L38.207,0.939
			c-0.591-0.601-1.393-0.938-2.231-0.938H3.155C1.414,0.001,0,1.436,0,3.206v37.885c0,1.771,1.414,3.207,3.155,3.207
			c1.743,0,3.156-1.436,3.156-3.207V6.412h28.358l57.622,58.539c0.591,0.601,1.394,0.938,2.231,0.938h32.395
			c1.742,0,3.155-1.435,3.155-3.205S128.659,59.478,126.917,59.478z M307.848,0.001c-1.743,0-3.155,1.435-3.155,3.205v30.146
			L272.786,0.94c-0.903-0.918-2.26-1.192-3.438-0.695c-1.179,0.496-1.947,1.664-1.947,2.961v37.886c0,1.771,1.411,3.206,3.155,3.206
			s3.154-1.436,3.154-3.206V10.945l31.906,32.414c0.604,0.614,1.412,0.939,2.232,0.939c0.406,0,0.816-0.08,1.209-0.245
			c1.176-0.496,1.945-1.664,1.945-2.961V3.207C311.002,1.437,309.59,0.001,307.848,0.001z M166.439,43.359
			c1.233-1.251,1.233-3.282,0-4.533L129.147,0.94c-0.902-0.916-2.256-1.191-3.438-0.695c-1.18,0.496-1.948,1.664-1.948,2.961v37.886
			c0,1.771,1.413,3.206,3.156,3.206c1.742,0,3.155-1.436,3.155-3.206V10.945l31.908,32.414
			C163.21,44.611,165.208,44.611,166.439,43.359z M103.646,43.409c0.598,0.583,1.384,0.89,2.181,0.89
			c0.418,0,0.839-0.085,1.238-0.257c1.163-0.506,1.917-1.666,1.917-2.949V3.207c0-1.77-1.414-3.205-3.156-3.205
			s-3.155,1.435-3.155,3.205v30.385L69.016,0.89c-1.257-1.222-3.255-1.179-4.46,0.101c-1.205,1.279-1.161,3.309,0.098,4.533
			L103.646,43.409z M198.229,37.887h-18.932V3.207c0-1.77-1.411-3.205-3.153-3.205c-1.745,0-3.156,1.435-3.156,3.205v37.886
			c0,1.771,1.411,3.206,3.156,3.206h22.085c1.744,0,3.156-1.436,3.156-3.206C201.385,39.323,199.973,37.887,198.229,37.887z
			 M249.466,0.869h-35.587c-1.742,0-3.155,1.435-3.155,3.205v36.151c0,1.771,1.413,3.205,3.155,3.205h35.587
			c1.742,0,3.153-1.435,3.153-3.205V4.074C252.62,2.304,251.208,0.869,249.466,0.869z M246.309,37.019h-29.272V7.279h29.272V37.019z
			"/>
</svg>
